<svg width="430" height="612" viewBox="0 0 430 612" fill="none" xmlns="http://www.w3.org/2000/svg">
<g filter="url(#filter0_b_846_4124)">
<path d="M270.403 142H245.596C243.593 142 242 140.361 242 138.404V113.596C242 111.593 243.639 110 245.596 110H270.403C272.406 110 273.999 111.639 273.999 113.596V138.358C274.045 140.361 272.406 142 270.403 142Z" fill="#DEE0DF" fill-opacity="0.3"/>
</g>
<g filter="url(#filter1_b_846_4124)">
<path d="M75.6932 97.8198H122.389C126.529 97.8198 129.995 101.19 129.995 105.426V152.121C129.995 156.261 126.625 159.727 122.389 159.727H75.6932C71.5532 159.727 68.0871 156.358 68.0871 152.121V105.426C68.1834 101.19 71.5532 97.8198 75.6932 97.8198ZM122.389 158.091C125.662 158.091 128.454 155.395 128.454 152.025V105.33C128.454 101.96 125.758 99.264 122.389 99.264H75.6932C72.4197 99.264 69.6276 101.96 69.6276 105.33V152.025C69.6276 155.298 72.3235 158.091 75.6932 158.091H122.389Z" fill="#DEE0DF" fill-opacity="0.3"/>
</g>
<g filter="url(#filter2_b_846_4124)">
<path d="M-0.84877 -3.8147e-05H45.8466C49.9866 -3.8147e-05 53.4526 3.36972 53.4526 7.60601V54.2051C53.4526 58.3451 50.0829 61.8112 45.8466 61.8112H-0.84877C-4.98877 61.8112 -8.45485 58.4414 -8.45485 54.2051V7.50972C-8.35857 3.36972 -4.98877 -3.8147e-05 -0.84877 -3.8147e-05ZM45.8466 60.2707C49.1201 60.2707 51.9122 57.5749 51.9122 54.2051V7.50972C51.9122 4.23623 49.2164 1.44415 45.8466 1.44415H-0.84877C-4.12226 1.44415 -6.91434 4.13995 -6.91434 7.50972V54.2051C-6.91434 57.4786 -4.21854 60.2707 -0.84877 60.2707H45.8466Z" fill="#DEE0DF" fill-opacity="0.3"/>
</g>
<g filter="url(#filter3_b_846_4124)">
<path d="M60.385 176.094H48.1576C47.1948 176.094 46.3283 175.324 46.3283 174.265V162.038C46.3283 161.075 47.0985 160.208 48.1576 160.208H60.385C61.3478 160.208 62.2144 160.979 62.2144 162.038V174.361C62.2144 175.324 61.4441 176.094 60.385 176.094Z" fill="#EDEFEE" fill-opacity="0.3"/>
</g>
<g filter="url(#filter4_b_846_4124)">
<path d="M120.077 229.818H107.85C106.887 229.818 106.021 229.048 106.021 227.989V215.761C106.021 214.799 106.791 213.932 107.85 213.932H120.077C121.04 213.932 121.907 214.702 121.907 215.761V227.989C121.907 228.952 121.04 229.818 120.077 229.818Z" fill="#EDEFEE" fill-opacity="0.3"/>
</g>
<g filter="url(#filter5_b_846_4124)">
<path d="M84.8397 62.1962H72.6122C71.6494 62.1962 70.7829 61.4259 70.7829 60.3669V48.1394C70.7829 47.1766 71.5531 46.3101 72.6122 46.3101H84.8397C85.8025 46.3101 86.6689 47.0803 86.6689 48.1394V60.3669C86.6689 61.4259 85.8987 62.1962 84.8397 62.1962Z" fill="#DEE0DF" fill-opacity="0.3"/>
</g>
<g filter="url(#filter6_b_846_4124)">
<path d="M131.15 217.688H124.892C124.41 217.688 124.025 217.302 124.025 216.821V210.563C124.025 210.081 124.41 209.696 124.892 209.696H131.15C131.631 209.696 132.017 210.081 132.017 210.563V216.821C132.113 217.302 131.728 217.688 131.15 217.688Z" fill="#DEE0DF" fill-opacity="0.3"/>
</g>
<g filter="url(#filter7_b_846_4124)">
<path d="M100.629 50.5468H94.3704C93.889 50.5468 93.504 50.1616 93.504 49.6802V43.4221C93.504 42.9407 93.889 42.5556 94.3704 42.5556H100.629C101.11 42.5556 101.495 42.9407 101.495 43.4221V49.6802C101.495 50.1616 101.11 50.5468 100.629 50.5468Z" fill="#DEE0DF" fill-opacity="0.3"/>
</g>
<g filter="url(#filter8_b_846_4124)">
<path d="M52.7781 270.737H46.5199C46.0385 270.737 45.6534 270.352 45.6534 269.871V263.612C45.6534 263.131 46.0385 262.746 46.5199 262.746H52.7781C53.2594 262.746 53.6445 263.131 53.6445 263.612V269.871C53.6445 270.352 53.2594 270.737 52.7781 270.737Z" fill="#DEE0DF" fill-opacity="0.3"/>
</g>
<g filter="url(#filter9_b_846_4124)">
<path d="M206.248 135.176H218.475C219.919 135.176 221.075 136.331 221.075 137.776V150.003C221.075 151.447 219.919 152.603 218.475 152.603H206.248C204.804 152.603 203.648 151.447 203.648 150.003V137.776C203.648 136.331 204.804 135.176 206.248 135.176ZM218.475 150.966C219.053 150.966 219.438 150.485 219.438 150.003V137.776C219.438 137.198 218.957 136.813 218.475 136.813H206.248C205.67 136.813 205.285 137.294 205.285 137.776V150.003C205.285 150.581 205.766 150.966 206.248 150.966H218.475Z" fill="#DEE0DF" fill-opacity="0.3"/>
</g>
<g filter="url(#filter10_b_846_4124)">
<path d="M226.369 220.094H214.142C213.179 220.094 212.313 219.324 212.313 218.265V206.037C212.313 205.075 213.083 204.208 214.142 204.208H226.369C227.332 204.208 228.199 204.978 228.199 206.037V218.265C228.199 219.228 227.332 220.094 226.369 220.094Z" fill="#DEE0DF" fill-opacity="0.3"/>
</g>
<g filter="url(#filter11_b_846_4124)">
<path d="M208.654 176.191H183.621C181.599 176.191 179.963 174.554 179.963 172.532V147.5C179.963 145.478 181.599 143.841 183.621 143.841H208.654C210.676 143.841 212.312 145.478 212.312 147.5V172.532C212.312 174.554 210.676 176.191 208.654 176.191Z" fill="#DEE0DF" fill-opacity="0.3"/>
</g>
<g filter="url(#filter12_b_846_4124)">
<path d="M305.149 479.839H351.844C355.984 479.839 359.45 483.209 359.45 487.445V534.14C359.45 538.28 356.08 541.746 351.844 541.746H305.149C301.009 541.746 297.543 538.377 297.543 534.14V487.445C297.639 483.209 301.009 479.839 305.149 479.839ZM351.844 540.11C355.118 540.11 357.91 537.414 357.91 534.044V487.349C357.91 483.979 355.214 481.283 351.844 481.283H305.149C301.875 481.283 299.083 483.979 299.083 487.349V534.044C299.083 537.317 301.779 540.11 305.149 540.11H351.844Z" fill="#DEE0DF" fill-opacity="0.3"/>
</g>
<g filter="url(#filter13_b_846_4124)">
<path d="M228.606 382.019H275.302C279.442 382.019 282.908 385.389 282.908 389.625V436.224C282.908 440.364 279.538 443.83 275.302 443.83H228.606C224.466 443.83 221 440.461 221 436.224V389.529C221.097 385.389 224.466 382.019 228.606 382.019ZM275.302 442.29C278.575 442.29 281.367 439.594 281.367 436.224V389.529C281.367 386.255 278.671 383.463 275.302 383.463H228.606C225.333 383.463 222.541 386.159 222.541 389.529V436.224C222.541 439.498 225.237 442.29 228.606 442.29H275.302Z" fill="#DEE0DF" fill-opacity="0.3"/>
</g>
<g filter="url(#filter14_b_846_4124)">
<path d="M289.841 558.114H277.614C276.651 558.114 275.784 557.344 275.784 556.285V544.057C275.784 543.094 276.555 542.228 277.614 542.228H289.841C290.804 542.228 291.67 542.998 291.67 544.057V556.381C291.67 557.344 290.9 558.114 289.841 558.114Z" fill="#EDEFEE" fill-opacity="0.3"/>
</g>
<g filter="url(#filter15_b_846_4124)">
<path d="M349.534 611.838H337.306C336.344 611.838 335.477 611.067 335.477 610.008V597.781C335.477 596.818 336.247 595.952 337.306 595.952H349.534C350.497 595.952 351.363 596.722 351.363 597.781V610.008C351.363 610.971 350.497 611.838 349.534 611.838Z" fill="#EDEFEE" fill-opacity="0.3"/>
</g>
<g filter="url(#filter16_b_846_4124)">
<path d="M314.295 444.216H302.068C301.105 444.216 300.238 443.446 300.238 442.387V430.159C300.238 429.197 301.009 428.33 302.068 428.33H314.295C315.258 428.33 316.125 429.1 316.125 430.159V442.387C316.125 443.446 315.354 444.216 314.295 444.216Z" fill="#DEE0DF" fill-opacity="0.3"/>
</g>
<g filter="url(#filter17_b_846_4124)">
<path d="M360.605 599.707H354.347C353.866 599.707 353.48 599.321 353.48 598.84V592.582C353.48 592.1 353.866 591.715 354.347 591.715H360.605C361.086 591.715 361.472 592.1 361.472 592.582V598.84C361.568 599.321 361.183 599.707 360.605 599.707Z" fill="#DEE0DF" fill-opacity="0.3"/>
</g>
<g filter="url(#filter18_b_846_4124)">
<path d="M330.085 432.566H323.827C323.346 432.566 322.961 432.181 322.961 431.699V425.441C322.961 424.96 323.346 424.575 323.827 424.575H330.085C330.567 424.575 330.952 424.96 330.952 425.441V431.699C330.952 432.181 330.567 432.566 330.085 432.566Z" fill="#DEE0DF" fill-opacity="0.3"/>
</g>
<g filter="url(#filter19_b_846_4124)">
<path d="M373.411 382.501H367.153C366.671 382.501 366.286 382.116 366.286 381.634V375.376C366.286 374.895 366.671 374.51 367.153 374.51H373.411C373.892 374.51 374.277 374.895 374.277 375.376V381.634C374.277 382.116 373.892 382.501 373.411 382.501Z" fill="#DEE0DF" fill-opacity="0.3"/>
</g>
<g filter="url(#filter20_b_846_4124)">
<path d="M444.464 408.111H419.432C417.41 408.111 415.773 406.475 415.773 404.453V379.42C415.773 377.398 417.41 375.762 419.432 375.762H444.464C446.486 375.762 448.123 377.398 448.123 379.42V404.453C448.123 406.475 446.486 408.111 444.464 408.111Z" fill="#DEE0DF" fill-opacity="0.3"/>
</g>
<g filter="url(#filter21_b_846_4124)">
<path d="M437.726 558.403H412.694C410.672 558.403 409.035 556.766 409.035 554.744V529.712C409.035 527.69 410.672 526.053 412.694 526.053H437.726C439.748 526.053 441.385 527.69 441.385 529.712V554.744C441.385 556.766 439.748 558.403 437.726 558.403Z" fill="#DEE0DF" fill-opacity="0.3"/>
</g>
<defs>
<filter id="filter0_b_846_4124" x="103.538" y="-28.4616" width="308.923" height="308.923" filterUnits="userSpaceOnUse" color-interpolation-filters="sRGB">
<feFlood flood-opacity="0" result="BackgroundImageFix"/>
<feGaussianBlur in="BackgroundImageFix" stdDeviation="69.2308"/>
<feComposite in2="SourceAlpha" operator="in" result="effect1_backgroundBlur_846_4124"/>
<feBlend mode="normal" in="SourceGraphic" in2="effect1_backgroundBlur_846_4124" result="shape"/>
</filter>
<filter id="filter1_b_846_4124" x="-70.3746" y="-40.6417" width="338.831" height="338.831" filterUnits="userSpaceOnUse" color-interpolation-filters="sRGB">
<feFlood flood-opacity="0" result="BackgroundImageFix"/>
<feGaussianBlur in="BackgroundImageFix" stdDeviation="69.2308"/>
<feComposite in2="SourceAlpha" operator="in" result="effect1_backgroundBlur_846_4124"/>
<feBlend mode="normal" in="SourceGraphic" in2="effect1_backgroundBlur_846_4124" result="shape"/>
</filter>
<filter id="filter2_b_846_4124" x="-146.917" y="-138.462" width="338.831" height="338.734" filterUnits="userSpaceOnUse" color-interpolation-filters="sRGB">
<feFlood flood-opacity="0" result="BackgroundImageFix"/>
<feGaussianBlur in="BackgroundImageFix" stdDeviation="69.2308"/>
<feComposite in2="SourceAlpha" operator="in" result="effect1_backgroundBlur_846_4124"/>
<feBlend mode="normal" in="SourceGraphic" in2="effect1_backgroundBlur_846_4124" result="shape"/>
</filter>
<filter id="filter3_b_846_4124" x="-92.1334" y="21.7468" width="292.809" height="292.809" filterUnits="userSpaceOnUse" color-interpolation-filters="sRGB">
<feFlood flood-opacity="0" result="BackgroundImageFix"/>
<feGaussianBlur in="BackgroundImageFix" stdDeviation="69.2308"/>
<feComposite in2="SourceAlpha" operator="in" result="effect1_backgroundBlur_846_4124"/>
<feBlend mode="normal" in="SourceGraphic" in2="effect1_backgroundBlur_846_4124" result="shape"/>
</filter>
<filter id="filter4_b_846_4124" x="-32.4411" y="75.4706" width="292.809" height="292.809" filterUnits="userSpaceOnUse" color-interpolation-filters="sRGB">
<feFlood flood-opacity="0" result="BackgroundImageFix"/>
<feGaussianBlur in="BackgroundImageFix" stdDeviation="69.2308"/>
<feComposite in2="SourceAlpha" operator="in" result="effect1_backgroundBlur_846_4124"/>
<feBlend mode="normal" in="SourceGraphic" in2="effect1_backgroundBlur_846_4124" result="shape"/>
</filter>
<filter id="filter5_b_846_4124" x="-67.6788" y="-92.1515" width="292.809" height="292.809" filterUnits="userSpaceOnUse" color-interpolation-filters="sRGB">
<feFlood flood-opacity="0" result="BackgroundImageFix"/>
<feGaussianBlur in="BackgroundImageFix" stdDeviation="69.2308"/>
<feComposite in2="SourceAlpha" operator="in" result="effect1_backgroundBlur_846_4124"/>
<feBlend mode="normal" in="SourceGraphic" in2="effect1_backgroundBlur_846_4124" result="shape"/>
</filter>
<filter id="filter6_b_846_4124" x="-14.4362" y="71.2347" width="284.929" height="284.914" filterUnits="userSpaceOnUse" color-interpolation-filters="sRGB">
<feFlood flood-opacity="0" result="BackgroundImageFix"/>
<feGaussianBlur in="BackgroundImageFix" stdDeviation="69.2308"/>
<feComposite in2="SourceAlpha" operator="in" result="effect1_backgroundBlur_846_4124"/>
<feBlend mode="normal" in="SourceGraphic" in2="effect1_backgroundBlur_846_4124" result="shape"/>
</filter>
<filter id="filter7_b_846_4124" x="-44.9577" y="-95.906" width="284.914" height="284.914" filterUnits="userSpaceOnUse" color-interpolation-filters="sRGB">
<feFlood flood-opacity="0" result="BackgroundImageFix"/>
<feGaussianBlur in="BackgroundImageFix" stdDeviation="69.2308"/>
<feComposite in2="SourceAlpha" operator="in" result="effect1_backgroundBlur_846_4124"/>
<feBlend mode="normal" in="SourceGraphic" in2="effect1_backgroundBlur_846_4124" result="shape"/>
</filter>
<filter id="filter8_b_846_4124" x="-92.8082" y="124.284" width="284.914" height="284.914" filterUnits="userSpaceOnUse" color-interpolation-filters="sRGB">
<feFlood flood-opacity="0" result="BackgroundImageFix"/>
<feGaussianBlur in="BackgroundImageFix" stdDeviation="69.2308"/>
<feComposite in2="SourceAlpha" operator="in" result="effect1_backgroundBlur_846_4124"/>
<feBlend mode="normal" in="SourceGraphic" in2="effect1_backgroundBlur_846_4124" result="shape"/>
</filter>
<filter id="filter9_b_846_4124" x="65.1864" y="-3.28542" width="294.35" height="294.35" filterUnits="userSpaceOnUse" color-interpolation-filters="sRGB">
<feFlood flood-opacity="0" result="BackgroundImageFix"/>
<feGaussianBlur in="BackgroundImageFix" stdDeviation="69.2308"/>
<feComposite in2="SourceAlpha" operator="in" result="effect1_backgroundBlur_846_4124"/>
<feBlend mode="normal" in="SourceGraphic" in2="effect1_backgroundBlur_846_4124" result="shape"/>
</filter>
<filter id="filter10_b_846_4124" x="73.8509" y="65.7467" width="292.809" height="292.809" filterUnits="userSpaceOnUse" color-interpolation-filters="sRGB">
<feFlood flood-opacity="0" result="BackgroundImageFix"/>
<feGaussianBlur in="BackgroundImageFix" stdDeviation="69.2308"/>
<feComposite in2="SourceAlpha" operator="in" result="effect1_backgroundBlur_846_4124"/>
<feBlend mode="normal" in="SourceGraphic" in2="effect1_backgroundBlur_846_4124" result="shape"/>
</filter>
<filter id="filter11_b_846_4124" x="41.5013" y="5.37962" width="309.273" height="309.273" filterUnits="userSpaceOnUse" color-interpolation-filters="sRGB">
<feFlood flood-opacity="0" result="BackgroundImageFix"/>
<feGaussianBlur in="BackgroundImageFix" stdDeviation="69.2308"/>
<feComposite in2="SourceAlpha" operator="in" result="effect1_backgroundBlur_846_4124"/>
<feBlend mode="normal" in="SourceGraphic" in2="effect1_backgroundBlur_846_4124" result="shape"/>
</filter>
<filter id="filter12_b_846_4124" x="159.081" y="341.377" width="338.831" height="338.831" filterUnits="userSpaceOnUse" color-interpolation-filters="sRGB">
<feFlood flood-opacity="0" result="BackgroundImageFix"/>
<feGaussianBlur in="BackgroundImageFix" stdDeviation="69.2308"/>
<feComposite in2="SourceAlpha" operator="in" result="effect1_backgroundBlur_846_4124"/>
<feBlend mode="normal" in="SourceGraphic" in2="effect1_backgroundBlur_846_4124" result="shape"/>
</filter>
<filter id="filter13_b_846_4124" x="82.5384" y="243.557" width="338.831" height="338.734" filterUnits="userSpaceOnUse" color-interpolation-filters="sRGB">
<feFlood flood-opacity="0" result="BackgroundImageFix"/>
<feGaussianBlur in="BackgroundImageFix" stdDeviation="69.2308"/>
<feComposite in2="SourceAlpha" operator="in" result="effect1_backgroundBlur_846_4124"/>
<feBlend mode="normal" in="SourceGraphic" in2="effect1_backgroundBlur_846_4124" result="shape"/>
</filter>
<filter id="filter14_b_846_4124" x="137.323" y="403.766" width="292.809" height="292.809" filterUnits="userSpaceOnUse" color-interpolation-filters="sRGB">
<feFlood flood-opacity="0" result="BackgroundImageFix"/>
<feGaussianBlur in="BackgroundImageFix" stdDeviation="69.2308"/>
<feComposite in2="SourceAlpha" operator="in" result="effect1_backgroundBlur_846_4124"/>
<feBlend mode="normal" in="SourceGraphic" in2="effect1_backgroundBlur_846_4124" result="shape"/>
</filter>
<filter id="filter15_b_846_4124" x="197.015" y="457.49" width="292.809" height="292.809" filterUnits="userSpaceOnUse" color-interpolation-filters="sRGB">
<feFlood flood-opacity="0" result="BackgroundImageFix"/>
<feGaussianBlur in="BackgroundImageFix" stdDeviation="69.2308"/>
<feComposite in2="SourceAlpha" operator="in" result="effect1_backgroundBlur_846_4124"/>
<feBlend mode="normal" in="SourceGraphic" in2="effect1_backgroundBlur_846_4124" result="shape"/>
</filter>
<filter id="filter16_b_846_4124" x="161.777" y="289.869" width="292.809" height="292.809" filterUnits="userSpaceOnUse" color-interpolation-filters="sRGB">
<feFlood flood-opacity="0" result="BackgroundImageFix"/>
<feGaussianBlur in="BackgroundImageFix" stdDeviation="69.2308"/>
<feComposite in2="SourceAlpha" operator="in" result="effect1_backgroundBlur_846_4124"/>
<feBlend mode="normal" in="SourceGraphic" in2="effect1_backgroundBlur_846_4124" result="shape"/>
</filter>
<filter id="filter17_b_846_4124" x="215.019" y="453.254" width="284.929" height="284.914" filterUnits="userSpaceOnUse" color-interpolation-filters="sRGB">
<feFlood flood-opacity="0" result="BackgroundImageFix"/>
<feGaussianBlur in="BackgroundImageFix" stdDeviation="69.2308"/>
<feComposite in2="SourceAlpha" operator="in" result="effect1_backgroundBlur_846_4124"/>
<feBlend mode="normal" in="SourceGraphic" in2="effect1_backgroundBlur_846_4124" result="shape"/>
</filter>
<filter id="filter18_b_846_4124" x="184.499" y="286.113" width="284.914" height="284.914" filterUnits="userSpaceOnUse" color-interpolation-filters="sRGB">
<feFlood flood-opacity="0" result="BackgroundImageFix"/>
<feGaussianBlur in="BackgroundImageFix" stdDeviation="69.2308"/>
<feComposite in2="SourceAlpha" operator="in" result="effect1_backgroundBlur_846_4124"/>
<feBlend mode="normal" in="SourceGraphic" in2="effect1_backgroundBlur_846_4124" result="shape"/>
</filter>
<filter id="filter19_b_846_4124" x="227.825" y="236.048" width="284.914" height="284.914" filterUnits="userSpaceOnUse" color-interpolation-filters="sRGB">
<feFlood flood-opacity="0" result="BackgroundImageFix"/>
<feGaussianBlur in="BackgroundImageFix" stdDeviation="69.2308"/>
<feComposite in2="SourceAlpha" operator="in" result="effect1_backgroundBlur_846_4124"/>
<feBlend mode="normal" in="SourceGraphic" in2="effect1_backgroundBlur_846_4124" result="shape"/>
</filter>
<filter id="filter20_b_846_4124" x="277.312" y="237.3" width="309.273" height="309.273" filterUnits="userSpaceOnUse" color-interpolation-filters="sRGB">
<feFlood flood-opacity="0" result="BackgroundImageFix"/>
<feGaussianBlur in="BackgroundImageFix" stdDeviation="69.2308"/>
<feComposite in2="SourceAlpha" operator="in" result="effect1_backgroundBlur_846_4124"/>
<feBlend mode="normal" in="SourceGraphic" in2="effect1_backgroundBlur_846_4124" result="shape"/>
</filter>
<filter id="filter21_b_846_4124" x="270.574" y="387.591" width="309.273" height="309.273" filterUnits="userSpaceOnUse" color-interpolation-filters="sRGB">
<feFlood flood-opacity="0" result="BackgroundImageFix"/>
<feGaussianBlur in="BackgroundImageFix" stdDeviation="69.2308"/>
<feComposite in2="SourceAlpha" operator="in" result="effect1_backgroundBlur_846_4124"/>
<feBlend mode="normal" in="SourceGraphic" in2="effect1_backgroundBlur_846_4124" result="shape"/>
</filter>
</defs>
</svg>
